<?xml version="1.0" ?><svg viewBox="0 0 24 24" xmlns="http://www.w3.org/2000/svg"><title/><g id="Skrill"><g data-name="&lt;Group&gt;" id="_Group_"><path d="M17,5.5a13.41,13.41,0,0,0-5-1C9.21,4.5,6.5,6.19,6.5,9c0,3.38,3.15,4.5,5,4.5,1.48,0,2,.63,2,1.5s-.85,1.5-2,1.5a37.56,37.56,0,0,1-5-1v3a11.78,11.78,0,0,0,5,1c3.71,0,6-1.79,6-4.5,0-3.08-2.15-4.5-4-4.5-2,0-3-.5-3-1.5s.75-1.5,2-1.5a18.56,18.56,0,0,1,4.5,1Z" data-name="&lt;Path&gt;" id="_Path_" style="fill:none;stroke:#303c42;stroke-linecap:round;stroke-linejoin:round"/><rect data-name="&lt;Rectangle&gt;" height="21" id="_Rectangle_" rx="1.5" ry="1.5" style="fill:none;stroke:#303c42;stroke-linecap:round;stroke-linejoin:round" width="21" x="1.5" y="1.5"/></g></g></svg>